<svg width="30" height="30" xmlns="http://www.w3.org/2000/svg"><g stroke="#333" stroke-width="1.5" fill="none" fill-rule="evenodd"><path d="M.75 15c0 7.87 6.38 14.25 14.25 14.25S29.25 22.87 29.25 15 22.87.75 15 .75.75 7.13.75 15z"/><path d="M12.576 5.385L11.342 9.16a11.565 11.565 0 0 0-.573 3.596v11.986c0 .78.63 1.412 1.409 1.412h5.644a1.41 1.41 0 0 0 1.409-1.412V12.756c0-1.221-.194-2.435-.573-3.596l-1.235-3.775M17.942 5.385h-5.654a.76.76 0 0 1-.75-.77.76.76 0 0 1 .75-.769h5.654a.76.76 0 0 1 .75.77.76.76 0 0 1-.75.769z" stroke-linecap="round" stroke-linejoin="round"/><path d="M10.77 15.237c.359.099.694.148 1.018.148 1.098 0 1.829-.573 2.536-1.128.74-.58 1.504-1.18 2.747-1.18.428 0 .885.067 1.39.207" stroke-linecap="round" stroke-linejoin="round"/></g></svg>