<svg width="74" height="74" xmlns="http://www.w3.org/2000/svg"><g fill="#5200FF" fill-rule="evenodd"><path d="M3.325 40.584l.75.697c.692.645 1.659.306 2.33-.415.677-.727.958-1.73.265-2.374l-.749-.698-2.596 2.79zm2.386-4.968l1.948 1.812c1.42 1.321 1.239 3.148-.063 4.548-1.294 1.39-3.09 1.69-4.51.369l-1.949-1.813 4.574-4.916zM11.466 40.594l1.328.941-3.884 5.482-1.33-.942zM15.712 44.978l-.763 1.461.951.497c.476.248.847-.042 1.032-.397.185-.354.207-.816-.27-1.065l-.95-.496zm-3.894 3.94l3.11-5.956 2.463 1.286c1.4.731 1.521 2.06 1.002 3.054-.442.847-1.329 1.43-2.423 1.166l.378 2.815-1.677-.875-.241-2.656-.13-.068-1.038 1.989-1.444-.754zM19.41 52.516l2.092-6.385 4.143 1.358-.444 1.353-2.594-.85-.401 1.223 2.28.747-.435 1.325-2.28-.747-.37 1.13 2.678.878-.444 1.353zM32.907 54.125a3.416 3.416 0 0 1-3.053 1.102c-1.87-.279-3.156-2.038-2.877-3.909.282-1.89 2.023-3.188 3.894-2.909a3.436 3.436 0 0 1 2.608 1.947c.128-.07-1.48.736-1.48.736a1.781 1.781 0 0 0-1.37-1.062c-.984-.147-1.874.538-2.022 1.532-.148.993.505 1.898 1.489 2.045a1.79 1.79 0 0 0 1.628-.605l1.183 1.123zM35.363 50.389l-.033-1.423 5.097-.118.034 1.423-1.736.04.123 5.293-1.628.037-.122-5.292zM53.284 51.435a3.416 3.416 0 0 1-2.321 2.267c-1.818.52-3.717-.548-4.237-2.366-.526-1.837.52-3.738 2.338-4.26a3.434 3.434 0 0 1 3.18.692c.088-.116-1.042 1.282-1.042 1.282a1.78 1.78 0 0 0-1.687-.399c-.955.274-1.482 1.266-1.206 2.232.277.965 1.247 1.519 2.203 1.245a1.79 1.79 0 0 0 1.23-1.225l1.542.532zM56.738 51.545l-2.901-6.059 1.486-.711 2.286 4.774 2.18-1.044.615 1.284zM61.326 46.469l-2.413-3.523 1.351-.926 2.414 3.523c.341.5.985.542 1.404.256.418-.287.61-.903.269-1.402l-2.414-3.523 1.351-.926 2.414 3.524c.876 1.279.395 2.802-.755 3.59-1.15.787-2.745.686-3.62-.593M69.142 39.977l.95.98.749-.725c.364-.353.296-.775.058-1.02-.217-.224-.622-.334-1.015.046l-.742.719zm-.299-1.57c.238-.23.257-.548.02-.793-.245-.252-.54-.333-.82-.061l-.645.624.815.84.63-.61zm1.34-.55c.753-.54 1.596-.217 2.044.245.678.701.97 1.83-.207 2.97l-2.115 2.048-4.674-4.826 1.976-1.914c.896-.868 1.98-.912 2.733-.135.264.273.633.935.243 1.611zM5.062 17.971C.306 16.681.272 14.268.306 12.808.34 10.463 3.16 8.289 6.489 8.289c3.16 0 6.488 1.393 6.522 5.266h-4.45c-.034-1.189-1.053-1.393-1.8-1.393-1.02 0-1.699.476-1.665 1.19.034.475.442.95 1.393 1.188l2.684.713c3.838 1.053 4.314 3.602 4.314 4.62 0 3.364-3.533 4.96-6.863 4.96-3.227 0-6.59-1.936-6.624-5.469h4.416c.034.917 1.053 1.834 2.344 1.834 1.054-.033 1.937-.509 1.937-1.324 0-.68-.408-1.054-1.563-1.36l-2.072-.543zM30.269 16.103v8.391h-4.722v-8.561c-.034-2.004-1.257-3.057-2.616-3.057-1.427 0-2.751.815-2.751 3.227v8.391h-4.722V8.629h4.722v2.31c.747-1.665 2.446-2.616 4.144-2.616 2.514 0 4.213.951 5.096 2.786 1.528-2.48 3.635-2.82 4.756-2.82 3.77 0 6.115 2.412 6.115 7.202v9.003h-4.688v-8.46c0-2.072-1.223-3.158-2.616-3.158-1.495 0-2.718.916-2.718 3.227M45.454 0c1.597 0 2.888 1.19 2.888 2.752 0 1.563-1.29 2.786-2.888 2.786-1.596 0-2.955-1.223-2.955-2.786S43.858 0 45.454 0zM43.11 24.494H47.8V8.629H43.11v15.865zM50.788 24.494h4.722V0h-4.722zM73.074 21.606c-1.597 2.378-4.553 3.227-7.236 3.227-4.553 0-8.29-3.328-8.29-8.323 0-4.993 3.737-8.22 8.29-8.22 4.518 0 8.119 3.363 8.119 8.356 0 .408-.034 1.054-.068 1.461H62.271c.237 1.835 2.242 2.65 3.906 2.65 1.291 0 2.684-.476 3.465-1.495l3.432 2.344zM69.2 15.151c-.238-1.936-2.004-2.717-3.33-2.717-1.324 0-3.125.713-3.532 2.717H69.2zM20.914 71.454c.02.36.263.652.827.652.419 0 .827-.185.827-.603 0-.107 0-.331-.671-.555l-.788-.263c-1.5-.409-1.752-1.362-1.752-1.975 0-1.227 1.002-2.054 2.345-2.054 1.324 0 2.307.769 2.307 2.093h-1.626c0-.36-.204-.623-.7-.623-.438 0-.71.214-.71.535 0 .126.038.37.622.545l.769.243c1.762.545 1.859 1.567 1.859 2.044 0 1.48-1.353 2.044-2.482 2.044-1.499 0-2.472-.818-2.472-2.083h1.645zM26.31 68.165v-1.421h5.09v1.42h-1.733v5.285h-1.625v-5.284zM36.574 71.902c.993 0 1.791-.798 1.791-1.8 0-1.003-.798-1.81-1.79-1.81-.993 0-1.772.807-1.772 1.81 0 1.002.779 1.8 1.771 1.8m0-5.246A3.422 3.422 0 0 1 40 70.101a3.427 3.427 0 0 1-3.426 3.436c-1.888 0-3.415-1.548-3.415-3.436 0-1.907 1.527-3.445 3.415-3.445M44.072 68.165v1.644h1.07c.536 0 .73-.428.73-.827 0-.399-.194-.817-.73-.817h-1.07zm-1.625 5.284v-6.705h2.773c1.577 0 2.297 1.119 2.297 2.238 0 .954-.515 1.878-1.605 2.15l1.635 2.317h-1.889l-1.44-2.238h-.146v2.238h-1.625zM50.25 73.45v-6.706h4.35v1.42h-2.725v1.285h2.394v1.392h-2.394v1.187h2.813v1.421z"/></g></svg>