<?xml version="1.0" encoding="UTF-8"?>
<svg width="32px" height="33px" viewBox="0 0 32 33" version="1.1" xmlns="http://www.w3.org/2000/svg" xmlns:xlink="http://www.w3.org/1999/xlink">
    <!-- Generator: sketchtool 51.2 (57519) - http://www.bohemiancoding.com/sketch -->
    <title>939FEA77-D002-4C3F-A888-064D90016FC6-508-00000506FDFCB506</title>
    <desc>Created with sketchtool.</desc>
    <defs></defs>
    <g id="Desktop" stroke="none" stroke-width="1" fill="none" fill-rule="evenodd">
        <g id="whitening-category-copy" transform="translate(-703.000000, -1538.000000)" fill="#5700FF">
            <g id="banner/desktop/formula" transform="translate(170.000000, 1161.000000)">
                <g id="Group-5" transform="translate(489.000000, 40.000000)">
                    <g id="Group-3" transform="translate(41.000000, 334.000000)">
                        <g id="Group-7" transform="translate(0.428571, 0.000000)">
                            <g id="illustration-/-clock">
                                <g id="Group-2" transform="translate(2.955556, 2.955556)">
                                    <g id="quick-and-easy">
                                        <path d="M13.0439644,29.2879936 C7.38829781,29.2879936 2.78734229,24.6870381 2.78734229,19.0313714 C2.78734229,13.3757048 7.38829781,8.77474929 13.0439644,8.77474929 L13.0439644,9.09563818 C12.8104756,9.09563818 12.6217422,9.28437151 12.6217422,9.5178604 L12.6217422,11.7387493 C12.6217422,11.9718159 12.8104756,12.1609715 13.0439644,12.1609715 L13.0439644,18.5580603 C12.7826089,18.5580603 12.5710756,18.7700159 12.5710756,19.0313714 C12.5710756,19.2923048 12.7826089,19.5042603 13.0439644,19.5042603 C13.3048978,19.5042603 13.5168533,19.2923048 13.5168533,19.0313714 C13.5168533,18.8645937 13.4260755,18.7252603 13.2960311,18.6412381 L16.7742977,13.2612826 C16.7751422,13.262127 16.7755644,13.2629715 16.7764089,13.2633937 C16.8473422,13.3089937 16.9262977,13.3309493 17.0052533,13.3309493 C17.1437422,13.3309493 17.2792755,13.2629715 17.3603422,13.1379937 L18.5666311,11.2734604 C18.6932977,11.0775493 18.6371422,10.8166159 18.4412311,10.6895271 C18.4403866,10.6886826 18.43912,10.6891048 18.4378533,10.6882604 L18.6096977,10.4226826 C21.4297199,12.2525937 23.3005866,15.4268604 23.3005866,19.0313714 C23.3005866,24.6870381 18.6996311,29.2879936 13.0439644,29.2879936 M13.0439644,7.93030485 C6.92300893,7.93030485 1.94289785,12.9104159 1.94289785,19.0313714 C1.94289785,25.1523269 6.92300893,30.132438 13.0439644,30.132438 C19.16492,30.132438 24.145031,25.1523269 24.145031,19.0313714 C24.145031,12.9104159 19.16492,7.93030485 13.0439644,7.93030485" id="Fill-1"></path>
                                        <path d="M19.9141115,19.0313706 C19.9141115,19.2648595 20.1028448,19.4535929 20.3363337,19.4535929 L22.5572227,19.4535929 C22.7902894,19.4535929 22.9794449,19.2648595 22.9794449,19.0313706 C22.9794449,18.7978817 22.7902894,18.6091484 22.5572227,18.6091484 L20.3363337,18.6091484 C20.1028448,18.6091484 19.9141115,18.7978817 19.9141115,19.0313706" id="Fill-3"></path>
                                        <path d="M6.17335351,19.0313706 C6.17335351,18.7978817 5.98462017,18.6091484 5.75113128,18.6091484 L3.53024232,18.6091484 C3.29717564,18.6091484 3.10802008,18.7978817 3.10802008,19.0313706 C3.10802008,19.2648595 3.29717564,19.4535929 3.53024232,19.4535929 L5.75113128,19.4535929 C5.98462017,19.4535929 6.17335351,19.2648595 6.17335351,19.0313706" id="Fill-5"></path>
                                        <path d="M19.1311,15.8457469 C19.2066778,15.9897247 19.3531889,16.072058 19.5056112,16.072058 C19.5714778,16.072058 19.6381889,16.056858 19.7011,16.0239247 L21.6690779,14.9941247 C21.8755446,14.8864581 21.9549223,14.6310136 21.8472557,14.424547 C21.7387446,14.2185025 21.4845668,14.1370136 21.2772557,14.2463692 L19.3092778,15.2757469 C19.1028111,15.3838358 19.0230111,15.6392803 19.1311,15.8457469" id="Fill-7"></path>
                                        <path d="M6.38653311,22.0384799 L4.41897759,23.06828 C4.21251093,23.1763688 4.1322887,23.4318133 4.24079981,23.63828 C4.31637759,23.7822578 4.4628887,23.8645911 4.61531092,23.8645911 C4.68117758,23.8645911 4.74788869,23.8493911 4.8107998,23.8164578 L6.77835532,22.7862355 C6.98482199,22.6785688 7.06462198,22.4231244 6.9565331,22.2166577 C6.84844421,22.0106132 6.59384421,21.9295466 6.38653311,22.0384799" id="Fill-9"></path>
                                        <path d="M9.31156248,24.7994338 C9.11565136,24.6727671 8.85471802,24.7289227 8.72762912,24.9248338 L7.52134018,26.789367 C7.39467351,26.9852782 7.45082907,27.2462115 7.64674019,27.3733004 C7.71767353,27.4189004 7.79662908,27.4408559 7.87558464,27.4408559 C8.01407354,27.4408559 8.14960688,27.3728781 8.23025132,27.2479004 L9.43696248,25.3833671 C9.56362915,25.187456 9.5074736,24.9265227 9.31156248,24.7994338" id="Fill-11"></path>
                                        <path d="M16.798997,25.2966843 C16.6909082,25.0906398 16.4367304,25.0095732 16.228997,25.1185065 C16.0225304,25.2265954 15.9427304,25.4816176 16.0512415,25.6885065 L17.0810415,27.656062 C17.1566193,27.8000398 17.3031304,27.8823731 17.4555526,27.8823731 C17.5214193,27.8823731 17.5881304,27.8671731 17.6510415,27.8342398 C17.8575082,27.7261509 17.9373082,27.4707065 17.8287971,27.2642398 L16.798997,25.2966843 Z" id="Fill-13"></path>
                                        <path d="M9.00684442,10.4063421 C8.89875553,10.1998754 8.64415554,10.1188088 8.43684444,10.2281643 C8.23037778,10.3362532 8.151,10.5912754 8.25908889,10.7981643 L9.28846663,12.7657199 C9.36404441,12.9096977 9.51055551,12.992031 9.66297773,12.992031 C9.72884439,12.992031 9.7955555,12.976831 9.85846661,12.9438977 C10.0649333,12.8358088 10.144311,12.5803644 10.0362222,12.3738977 L9.00684442,10.4063421 Z" id="Fill-15"></path>
                                        <path d="M21.2603673,23.8448738 L19.3958339,22.6385849 C19.200345,22.5119182 18.9389894,22.5680738 18.8119005,22.7635627 C18.6852339,22.9594738 18.7413894,23.2204071 18.9373005,23.347496 L20.8018339,24.5542071 C20.8727673,24.5998071 20.9521451,24.6217627 21.0306784,24.6217627 C21.1691673,24.6217627 21.3047006,24.5537849 21.3857673,24.4288071 C21.512434,24.232896 21.4562784,23.9719627 21.2603673,23.8448738" id="Fill-17"></path>
                                        <path d="M7.15054457,14.7151624 L5.28601118,13.5088735 C5.09010006,13.382629 4.8287445,13.4383624 4.70207783,13.6338513 C4.57541116,13.8297624 4.63156671,14.0906957 4.82747783,14.2177846 L6.69201123,15.4244957 C6.76294456,15.4700957 6.84232234,15.4920513 6.92085568,15.4920513 C7.05934457,15.4920513 7.19487791,15.4240735 7.27594458,15.2990957 C7.40261125,15.1031846 7.34645569,14.8422513 7.15054457,14.7151624" id="Fill-19"></path>
                                        <path d="M13.0439646,25.9015594 C12.8104758,25.9015594 12.6217424,26.0902927 12.6217424,26.3237816 L12.6217424,28.5446706 C12.6217424,28.7777372 12.8104758,28.9668928 13.0439646,28.9668928 C13.2774535,28.9668928 13.4661869,28.7777372 13.4661869,28.5446706 L13.4661869,26.3237816 C13.4661869,26.0902927 13.2774535,25.9015594 13.0439646,25.9015594" id="Fill-21"></path>
                                        <path d="M25.6945442,15.8531775 C25.5602776,15.3177997 25.3905442,14.7971997 25.192522,14.2905331 L29.2682332,12.6527331 C29.376322,12.6092442 29.4290998,12.4859553 29.3851887,12.3782886 C29.342122,12.2697775 29.2192554,12.2186886 29.1107443,12.2609109 L25.0341887,13.8991331 C24.994922,13.8079331 24.9526998,13.718422 24.9117442,13.6280664 C25.0172998,13.5499553 25.1464998,13.4507331 25.2942776,13.3287108 C25.4086998,13.2408886 26.1526553,12.8359775 26.7762776,12.5121331 C26.9493887,12.4217775 27.0380553,12.2254442 26.9911887,12.0362886 C26.9679665,11.9412886 26.9134998,11.8610664 26.8408776,11.8044886 C27.0384776,11.5726886 27.2221442,11.3337109 27.3994776,11.0909331 C27.8592776,11.0178886 29.357322,10.8603998 30.7413665,11.6073109 C29.6967887,15.0881108 26.5208331,15.7408664 25.6945442,15.8531775 M13.043922,31.2309324 C6.31707766,31.2309324 0.844655556,25.7580881 0.844655556,19.0312438 C0.844655556,12.3048217 6.31707766,6.83197742 13.043922,6.83197742 C19.7707663,6.83197742 25.2436106,12.3048217 25.2436106,19.0312438 C25.2436106,25.7580881 19.7707663,31.2309324 13.043922,31.2309324 M19.1522116,0.935644425 C20.7549671,3.28868893 19.4097671,6.36668901 18.8879005,7.37495571 C18.4200783,7.1393557 17.9374783,6.93035569 17.4401005,6.75133347 L18.9584116,2.13391112 C18.9951449,2.02286668 18.9347671,1.90380001 18.8241449,1.86748889 C18.7126783,1.82948889 18.5936116,1.89113334 18.5577227,2.00175556 L17.0402561,6.61622235 C16.4542116,6.42706679 15.8504339,6.27928901 15.2314561,6.1745779 C15.3589672,5.28326676 16.015945,2.26944446 19.1522116,0.935644425 M21.8307893,3.90977782 C21.9773005,3.8126667 22.4493449,3.43435558 22.8605893,3.10037779 C22.9733227,3.16920002 23.1287005,3.19833335 23.3111005,3.12233335 C23.827056,2.90615557 24.3729893,2.73304445 24.932856,2.60722223 C25.1308782,2.56288889 25.7431004,2.33024444 26.259056,2.12715555 C26.3561671,2.28717777 26.5394116,2.37626666 26.7425004,2.36571111 C27.2867449,2.33911111 27.8470338,2.35177778 28.4145004,2.40371111 C28.4993671,2.78962223 28.5639671,3.17342224 28.6066115,3.54793336 C28.6294115,3.74553337 28.7391893,3.90428893 28.9025893,3.98071115 C28.7991449,4.53255561 28.6657227,5.27313341 28.6437671,5.5370223 C28.573256,6.40722232 28.3836782,7.26391124 28.0805227,8.08386681 C28.0269004,8.22784459 28.0395671,8.37688904 28.1092338,8.49553349 C27.836056,8.87342239 27.539656,9.29268907 27.4552115,9.44468907 C27.0165227,10.240578 26.464256,10.9938224 25.814456,11.6850002 C25.6958116,11.8120891 25.6502116,11.977178 25.6873671,12.1321336 C25.2879449,12.3474669 24.8792338,12.5767336 24.7597449,12.6746892 C24.6757227,12.7439336 24.6001449,12.8030447 24.5309004,12.8566669 C24.3725671,12.5640669 24.2015671,12.2794891 24.0225449,12.0008225 C24.0635004,12.0016669 24.104456,12.0025114 24.1479449,12.0025114 C24.3839671,12.0025114 24.6461671,11.988578 24.9028782,11.946778 C25.0177227,11.9282002 25.096256,11.8196891 25.077256,11.7048447 C25.0586782,11.5891558 24.9489004,11.5093558 24.8353227,11.5304669 C24.4367449,11.5946447 24.0166338,11.5840891 23.7295227,11.5638225 C23.2933671,10.9418891 22.8073893,10.3579558 22.2724338,9.82215575 L22.3627893,9.71955574 C22.6494782,9.84917797 23.2946338,10.0906891 24.134856,10.0906891 C24.8526338,10.0906891 25.7110116,9.91377797 26.6040116,9.33871129 C26.7023893,9.27537795 26.7306782,9.14491128 26.6677671,9.04695573 C26.6040116,8.94857795 26.4735449,8.92028906 26.3755893,8.98320017 C24.7356782,10.0400224 23.2346782,9.61906685 22.6579227,9.3864224 L23.8958782,7.98591125 C23.9013671,7.98380014 23.9072782,7.98464459 23.9123449,7.98211125 C23.9275449,7.97493348 23.9385227,7.96311125 23.9507671,7.95297792 C24.0909449,7.98253348 24.3472338,8.02517792 24.6883893,8.02517792 C25.3943449,8.02517792 26.4524338,7.84320014 27.5379671,6.99284456 C27.6295893,6.92106678 27.6456338,6.78806678 27.573856,6.69644455 C27.5020782,6.60440011 27.3695004,6.58920011 27.277456,6.66055566 C26.0141671,7.65024458 24.8061893,7.6468668 24.2577227,7.57677791 L25.7034116,5.94193342 C25.784056,5.95502231 25.9031227,5.96895565 26.0635671,5.96895565 C26.502256,5.96895565 27.2124338,5.86255564 28.0340782,5.3356223 C28.1320338,5.27228896 28.1611671,5.14224451 28.0978338,5.04386673 C28.0345004,4.94506673 27.9027671,4.91720006 27.8065004,4.98011118 C27.0625449,5.45680008 26.4271004,5.54504452 26.0551227,5.5446223 L27.7672338,3.60873336 C27.8445004,3.52133336 27.836056,3.38833336 27.748656,3.31064447 C27.6616782,3.2333778 27.5286782,3.24055558 27.4505671,3.32922224 L25.6443004,5.37193341 C25.6354338,5.00924451 25.7097449,4.3615556 26.2092338,3.58255558 C26.2721449,3.48460003 26.2434338,3.35413336 26.145056,3.29122224 C26.0483671,3.22873335 25.917056,3.2561778 25.8537227,3.3549778 C24.9890116,4.70355561 25.2567004,5.74982231 25.2685227,5.79373342 C25.2685227,5.79457786 25.2693671,5.79457786 25.2697893,5.79542231 L23.8912338,7.35384457 C23.7383893,6.79904456 23.5745671,5.63286675 24.313456,4.27922227 C24.3696116,4.17704449 24.3320338,4.04868893 24.2294338,3.9929556 C24.1281004,3.93637782 23.9993227,3.97395559 23.9435893,4.07697782 C22.9973893,5.80808898 23.3904782,7.25462235 23.5644338,7.72328902 L22.3594116,9.08622239 C22.0528782,8.58040016 21.3562116,7.12288901 22.155056,5.31451118 C22.2023449,5.20768896 22.1542116,5.0831334 22.0473893,5.03626673 C21.9414116,4.98855562 21.8160116,5.0375334 21.7691449,5.1439334 C20.8221005,7.2879779 21.7623893,8.95997795 22.067656,9.41597796 L21.9671671,9.52955574 C21.258256,8.86371128 20.4758782,8.27640015 19.6327005,7.78071125 C19.9202338,7.23604457 20.4193005,6.15768898 20.6489893,4.8779334 C20.7511671,4.76731117 21.1463671,4.3615556 21.8307893,3.90977782 M31.4612548,11.051245 C30.2194993,10.2612672 28.8709215,10.1506449 27.9994549,10.1861116 C28.0653215,10.0754894 28.1324549,9.96571159 28.1945215,9.85340047 C28.2895215,9.68155602 28.9055437,8.8307782 29.2720326,8.33508929 C29.3936326,8.17084483 29.3796993,7.9424226 29.2386771,7.79380037 C29.1977215,7.75115593 29.1500104,7.71822259 29.0980771,7.69626703 C29.2982104,7.01437811 29.4282548,6.31391141 29.4856771,5.60542249 C29.5110104,5.29382247 29.7592771,3.98408908 29.8530104,3.50528906 C29.8880548,3.3258446 29.8031882,3.14428904 29.6440104,3.05520015 C29.563366,3.01044459 29.4742771,2.99524459 29.3856104,3.00537792 C29.3302993,2.64522235 29.2572549,2.27957789 29.168166,1.9135112 C29.1259437,1.74208897 28.9811215,1.61457785 28.8054771,1.59473341 C28.2844549,1.53520007 27.7684993,1.50733341 27.2609882,1.50775563 C27.2791438,1.39882229 27.2542327,1.28397784 27.1854105,1.18982228 C27.0718327,1.03317783 26.865366,0.974488935 26.6863438,1.04753338 C25.8689216,1.37897784 24.9206105,1.74462231 24.7483438,1.78346675 C24.3776327,1.86622231 24.0128328,1.96882232 23.6568994,2.08915566 C23.6328328,2.02075565 23.5910328,1.95784454 23.5323439,1.90802231 C23.3761217,1.77460008 23.1476994,1.77333342 22.9902106,1.90337787 C22.4510328,2.34755567 21.5339661,3.09362237 21.3654995,3.20508904 C21.1391884,3.35455572 20.9403217,3.49980017 20.7693217,3.63448906 C20.7815662,2.48055567 20.4986773,1.25737784 19.6301662,0.160444452 C19.515744,0.0164666675 19.321944,-0.0380000018 19.1513662,0.0274444458 C15.3758552,1.43597785 14.5601219,4.96448913 14.3962997,6.05762251 C13.9516997,6.01117806 13.5003441,5.98753362 13.0439219,5.98753362 C5.85136653,5.98753362 0.000211111121,11.8386895 0.000211111121,19.0312454 C0.000211111121,26.2238013 5.85136653,32.0753793 13.0439219,32.0753793 C20.2364773,32.0753793 26.0880549,26.2238013 26.0880549,19.0312454 C26.0880549,18.2273342 26.0107883,17.4411564 25.8710327,16.6765119 C26.9654327,16.4991786 30.6096326,15.6078674 31.644077,11.511045 C31.6884103,11.3341339 31.6145215,11.1487783 31.4612548,11.051245" id="Fill-23"></path>
                                    </g>
                                </g>
                            </g>
                        </g>
                    </g>
                </g>
            </g>
        </g>
    </g>
</svg>