<svg width="30" height="30" xmlns="http://www.w3.org/2000/svg"><g fill="none" fill-rule="evenodd"><path d="M7.768 18.557c-.28 1.744.212 3.811 1.568 5.156a5.793 5.793 0 0 0 5.176 1.567s.705-2.901-1.566-5.15c-2.27-2.25-5.178-1.573-5.178-1.573" stroke="#333" stroke-width="1.5" stroke-linecap="round" stroke-linejoin="round"/><path d="M22.201 18.537c-1.937-.28-4.234.212-5.728 1.568-1.548 1.407-2.129 3.36-1.741 5.176 0 0 3.223.705 5.722-1.566 2.5-2.27 1.747-5.178 1.747-5.178M7.768 11.634c-.28 1.744.212 3.811 1.568 5.156a5.794 5.794 0 0 0 5.176 1.567s.705-2.901-1.566-5.15c-2.27-2.25-5.178-1.573-5.178-1.573" stroke="#333" stroke-width="1.5" stroke-linecap="round" stroke-linejoin="round"/><path d="M22.201 11.614c-1.937-.28-4.234.212-5.728 1.569-1.548 1.406-2.129 3.36-1.741 5.175 0 0 3.223.705 5.722-1.566 2.5-2.27 1.747-5.178 1.747-5.178M15.017 3.846c-1.52 1.095-2.71 3-2.71 5.006a6.004 6.004 0 0 0 2.678 4.994s2.707-1.643 2.707-5c0-3.356-2.675-5-2.675-5" stroke="#333" stroke-width="1.5" stroke-linecap="round" stroke-linejoin="round"/><path d="M14.707 14.201v8.503"/><path d="M14.707 14.201v8.503" stroke="#333" stroke-width="1.5" stroke-linecap="round" stroke-linejoin="round"/><path d="M.75 15c0 7.87 6.38 14.25 14.25 14.25S29.25 22.87 29.25 15 22.87.75 15 .75.75 7.13.75 15z" stroke="#333" stroke-width="1.5"/></g></svg>