<?xml version="1.0" encoding="UTF-8"?>
<svg width="32px" height="19px" viewBox="0 0 32 19" version="1.1" xmlns="http://www.w3.org/2000/svg" xmlns:xlink="http://www.w3.org/1999/xlink">
    <g id="Desktop" stroke="none" stroke-width="1" fill="none" fill-rule="evenodd">
        <g id="whitening-category-copy" transform="translate(-703.000000, -1338.000000)" fill="#5700FF">
            <g id="banner/desktop/formula" transform="translate(170.000000, 1161.000000)">
                <g id="Group-5" transform="translate(489.000000, 40.000000)">
                    <g id="Group-2" transform="translate(41.000000, 128.000000)">
                        <g id="Group-6">
                            <g id="illustration-/-smile">
                                <g id="Group-3" transform="translate(3.800000, 9.711111)">
                                    <g id="bright-boost">
                                        <path d="M1.24893331,7.42389113 C2.28506661,9.13558004 4.15128877,11.1778689 7.44335533,12.4892912 L7.44335533,15.7171801 C3.44659991,13.602269 1.86833329,9.98635782 1.24893331,7.42389113 Z M14.9576443,13.823936 L14.9576443,17.4330917 C12.2465554,17.393825 10.056911,16.899825 8.28779988,16.1237805 L8.28779988,12.7983582 C10.0957554,13.4038249 12.2917332,13.7926916 14.9576443,13.823936 Z M23.2800671,15.6576469 L23.2800671,12.4420023 C26.5050004,11.1259356 28.3382893,9.10560227 29.3604893,7.41291334 C28.7520671,9.95173562 27.2025116,13.5313357 23.2800671,15.6576469 Z M23.2800671,8.12266887 C26.2867115,7.29680223 28.3256225,6.1462467 29.4436669,5.38878005 C28.8660669,6.98182446 27.3034225,9.83646883 23.2800671,11.5574466 L23.2800671,8.12266887 Z M22.4356219,11.8888915 C20.6757996,12.5171582 18.4945995,12.9300915 15.8020883,12.976536 L15.8020883,9.12755805 C18.3552662,9.0963136 20.5639107,8.78555803 22.4356219,8.33758024 L22.4356219,11.8888915 Z M15.8020883,13.8205578 C18.4549106,13.7749577 20.6407551,13.3746911 22.4356219,12.7582466 L22.4356219,16.0739578 C20.6800218,16.8630912 18.5013551,17.3718689 15.8020883,17.428869 L15.8020883,13.8205578 Z M30.6022429,4.48860229 C30.6022429,4.46242451 30.5921095,4.44046896 30.5878873,4.41598007 C30.5933762,4.38642452 30.5971762,4.36531341 30.5975984,4.36151341 C30.5988651,4.35391341 30.5959095,4.34758007 30.596754,4.33998007 C30.5997095,4.3100023 30.5954873,4.28129119 30.5921095,4.25131341 C30.589154,4.22598008 30.5883095,4.20064675 30.5811318,4.1770023 C30.5735318,4.15209119 30.5600207,4.13013564 30.5477762,4.10733564 C30.5342651,4.08115786 30.5220207,4.0554023 30.5034429,4.03302453 C30.4983762,4.02711342 30.4966873,4.01951342 30.4916207,4.01360231 C30.4781095,3.99924675 30.4603762,3.9924912 30.4455984,3.98024675 C30.4236429,3.9620912 30.402954,3.94435786 30.3776207,3.93084675 C30.3501762,3.91564675 30.3214651,3.90762453 30.2919096,3.89960231 C30.2750207,3.89495787 30.2610873,3.88440231 30.243354,3.88186898 C30.2361762,3.88060231 30.2298429,3.88355787 30.2226651,3.88271342 C30.1926873,3.87975787 30.163554,3.88355787 30.1339985,3.88693564 C30.1078207,3.8898912 30.0820651,3.89073564 30.0575762,3.89791342 C30.0339318,3.90551342 30.0128207,3.91818009 29.9908651,3.93000231 C29.9638429,3.94393564 29.9372429,3.95660231 29.9140207,3.97602453 C29.9081096,3.9810912 29.9005096,3.98235786 29.8950207,3.98742453 C29.848154,4.03049119 25.0897098,8.2890244 15.3798659,8.2890244 C13.2911327,8.2890244 11.2627772,8.08382441 9.35264396,7.68017997 C9.12295509,7.63246886 8.90044399,7.77813553 8.85188843,8.00613552 C8.8037551,8.23455774 8.94984398,8.45833551 9.17784397,8.50646884 C11.0157772,8.89491327 12.9596882,9.09715771 14.9576437,9.12291326 L14.9576437,12.9799131 C12.2549994,12.9478243 10.0607106,12.5500909 8.28779957,11.9340687 L8.28779957,9.9829799 C8.28779957,9.74949102 8.09864403,9.5607577 7.86557737,9.5607577 C7.63251072,9.5607577 7.44335517,9.74949102 7.44335517,9.9829799 L7.44335517,11.6102243 C3.15104428,9.82169102 1.60866658,6.74369111 1.08722217,5.18611338 C1.55208881,5.50826893 2.17866655,5.90473558 2.99102207,6.3290689 C3.05351095,6.36158001 3.12064428,6.37720224 3.18608873,6.37720224 C3.33851094,6.37720224 3.48544427,6.29444668 3.56102204,6.15004669 C3.6686887,5.94358003 3.5888887,5.68855781 3.38199983,5.58046893 C1.61837769,4.65918006 0.716088852,3.84344676 0.707222186,3.83542453 C0.535799972,3.67793565 0.26853332,3.69018009 0.111044439,3.86160231 C0.0198444434,3.96124675 -0.00802222181,4.09044675 0.0122444438,4.21373563 C0.002111111,4.26144674 -0.0029555554,4.31084674 0.00464444421,4.36151341 C0.00548888861,4.36531341 0.00886666621,4.38642452 0.014777777,4.41598007 C0.0101333328,4.44046896 0,4.46242451 0,4.48860229 C0,4.62666895 0.175222213,18.2872463 15.3013325,18.2872463 C18.4886879,18.2872463 21.0055545,17.6758686 23.0030877,16.7174241 C23.0178655,16.7119353 23.0309544,16.7047575 23.0448877,16.6980019 C30.4878207,13.095602 30.6022429,4.59753562 30.6022429,4.48860229 Z" id="Fill-1"></path>
                                        <path d="M2.4968533,2.67760668 L3.47598663,2.86296223 C3.51314219,2.87014001 3.54227552,2.89885112 3.5494533,2.93600668 L3.73480885,3.91556224 C3.75380885,4.01520669 3.89651996,4.01520669 3.91509774,3.91556224 L4.1004533,2.93600668 C4.10763107,2.89885112 4.13676441,2.87014001 4.17391996,2.86296223 L5.15305329,2.67760668 C5.25269774,2.65860668 5.25269774,2.51589556 5.15305329,2.49689556 L4.17391996,2.31196223 C4.13676441,2.30436223 4.10763107,2.27565112 4.1004533,2.23849556 L3.91509774,1.25936222 C3.89651996,1.15929555 3.75380885,1.15929555 3.73480885,1.25936222 L3.5494533,2.23849556 C3.54227552,2.27565112 3.51314219,2.30436223 3.47598663,2.31196223 L2.4968533,2.49689556 C2.39720886,2.51589556 2.39720886,2.65860668 2.4968533,2.67760668" id="Fill-4"></path>
                                        <path d="M6.17934888,1.0868422 L6.89205997,1.22153108 C6.91908219,1.22701997 6.9401933,1.24813108 6.94525997,1.27515331 L7.08037108,1.9878644 C7.09430441,2.06048662 7.19817108,2.06048662 7.21168219,1.9878644 L7.34679329,1.27515331 C7.35185996,1.24813108 7.37297107,1.22701997 7.39999329,1.22153108 L8.11270439,1.0868422 C8.18532661,1.07333109 8.18532661,0.969464423 8.11270439,0.955108868 L7.39999329,0.820419982 C7.37297107,0.815353315 7.35185996,0.794242205 7.34679329,0.767219983 L7.21168219,0.0545088877 C7.19817108,-0.0181133329 7.09430441,-0.0181133329 7.08037108,0.0545088877 L6.94525997,0.767219983 C6.9401933,0.794242205 6.91908219,0.815353315 6.89205997,0.820419982 L6.17934888,0.955108868 C6.10672666,0.969464423 6.10672666,1.07333109 6.17934888,1.0868422" id="Fill-6"></path>
                                        <path d="M4.06452228,7.2111335 L5.53976671,7.49022239 C5.63223338,7.50795572 5.70443338,7.58015572 5.72174449,7.67262239 L6.00125559,9.14786682 C6.04812226,9.39613348 6.40363337,9.39613348 6.45050003,9.14786682 L6.72958892,7.67262239 C6.74732225,7.58015572 6.81952225,7.50795572 6.91198892,7.49022239 L8.38723335,7.2111335 C8.63550001,7.16426684 8.63550001,6.80875573 8.38723335,6.76188906 L6.91198892,6.48237796 C6.81952225,6.46464462 6.74732225,6.39286685 6.72958892,6.30040018 L6.45050003,4.82515575 C6.40363337,4.57688909 6.04812226,4.57688909 6.00125559,4.82515575 L5.72174449,6.30040018 C5.70443338,6.39286685 5.63223338,6.46464462 5.53976671,6.48237796 L4.06452228,6.76188906 C3.81625562,6.80875573 3.81625562,7.16426684 4.06452228,7.2111335" id="Fill-9"></path>
                                    </g>
                                </g>
                            </g>
                        </g>
                    </g>
                </g>
            </g>
        </g>
    </g>
</svg>