<?xml version="1.0" encoding="UTF-8"?>
<svg width="38px" height="33px" viewBox="0 0 38 33" version="1.1" xmlns="http://www.w3.org/2000/svg" xmlns:xlink="http://www.w3.org/1999/xlink">
    <!-- Generator: sketchtool 51.2 (57519) - http://www.bohemiancoding.com/sketch -->
    <title>50C74211-17AE-47DF-ABA1-92459826FD21-508-00000506FDFBC8CA</title>
    <desc>Created with sketchtool.</desc>
    <defs></defs>
    <g id="Desktop" stroke="none" stroke-width="1" fill="none" fill-rule="evenodd">
        <g id="whitening-category-copy" transform="translate(-700.000000, -1435.000000)">
            <g id="banner/desktop/formula" transform="translate(170.000000, 1161.000000)">
                <g id="Group-5" transform="translate(489.000000, 40.000000)">
                    <g id="Group-4" transform="translate(41.000000, 231.000000)">
                        <g id="Group" transform="translate(0.428571, 0.000000)">
                            <g id="illustration-/-pen">
                                <g id="Group" transform="translate(0.844444, 2.955556)">
                                    <g id="Group-16">
                                        <polygon id="Stroke-1" stroke="#5700FF" stroke-width="2.5" stroke-linecap="round" stroke-linejoin="round" points="19.0010084 21.1728175 23.4126212 15.940907 20.5481802 12.8295034 14.8800234 16.6966207"></polygon>
                                        <path d="M21.0549413,13.3800714 L24.4108704,10.3507179" id="Stroke-2" stroke="#5700FF" stroke-width="1.5" stroke-linecap="round" stroke-linejoin="round"></path>
                                        <path d="M21.9803805,14.3852257 L25.3363096,11.3558722" id="Stroke-3" stroke="#5700FF" stroke-width="1.5" stroke-linecap="round" stroke-linejoin="round"></path>
                                        <path d="M22.9058004,15.3905824 L26.2617295,12.3610257" id="Stroke-4" stroke="#5700FF" stroke-width="1.5" stroke-linecap="round" stroke-linejoin="round"></path>
                                        <polyline id="Stroke-13" stroke="#5700FF" stroke-width="2.5" stroke-linecap="round" stroke-linejoin="round" points="0.202870825 29.3991292 14.6055011 16.3980514 19.2756529 21.4713455 7.92451337 31.7180593"></polyline>
                                        <path d="M29.3032688,4.9209124 L30.9168525,4.61545866 C31.0811558,4.58438524 31.0811558,4.34899901 30.9168525,4.3177225 L29.3032688,4.01226876 C29.2421374,4.00089549 29.1942072,3.95296524 29.1826308,3.89183388 L28.8771771,2.27804704 C28.8461037,2.11394689 28.6107174,2.11394689 28.579644,2.27804704 L28.2741903,3.89183388 C28.2624108,3.95296524 28.2146837,4.00089549 28.1535523,4.01226876 L26.5399686,4.3177225 C26.3754623,4.34899901 26.3754623,4.58438524 26.5399686,4.61545866 L28.1535523,4.9209124 C28.2146837,4.93248877 28.2624108,4.98021592 28.2741903,5.04155038 L28.579644,6.65513412 C28.6107174,6.81943736 28.8461037,6.81943736 28.8771771,6.65513412 L29.1826308,5.04155038 C29.1942072,4.98021592 29.2421374,4.93248877 29.3032688,4.9209124" id="Fill-5" fill="#5700FF"></path>
                                        <path d="M34.6194214,2.2164283 L35.7939153,1.99404011 C35.9137409,1.97149665 35.9137409,1.80008512 35.7939153,1.77754166 L34.6194214,1.55515347 C34.5749437,1.54682661 34.5400115,1.5118944 34.5316847,1.46741676 L34.3092965,0.292719713 C34.286753,0.173097209 34.1153415,0.173097209 34.0925949,0.292719713 L33.8704098,1.46741676 C33.862083,1.5118944 33.8271508,1.54682661 33.78247,1.55515347 L32.6079761,1.77754166 C32.4883535,1.80008512 32.4883535,1.97149665 32.6079761,1.99404011 L33.78247,2.2164283 C33.8271508,2.22495825 33.862083,2.25968737 33.8704098,2.3043681 L34.0925949,3.47886205 C34.1153415,3.59848456 34.286753,3.59848456 34.3092965,3.47886205 L34.5316847,2.3043681 C34.5400115,2.25968737 34.5749437,2.22495825 34.6194214,2.2164283" id="Fill-7" fill="#5700FF"></path>
                                        <path d="M33.8153728,12.5460854 L36.2464107,12.0860769 C36.6554425,12.008698 36.6554425,11.4227711 36.2464107,11.3453922 L33.8153728,10.8851807 C33.6630522,10.8565444 33.544039,10.7373281 33.5149965,10.5850074 L33.0549881,8.15396928 C32.9776092,7.74473438 32.3916823,7.74473438 32.3143034,8.15396928 L31.8540919,10.5850074 C31.8254556,10.7373281 31.7062393,10.8565444 31.5539186,10.8851807 L29.1230838,11.3453922 C28.713849,11.4227711 28.713849,12.008698 29.1230838,12.0860769 L31.5539186,12.5460854 C31.7062393,12.5751279 31.8254556,12.6941411 31.8540919,12.8464618 L32.3143034,15.2772968 C32.3916823,15.6865317 32.9776092,15.6865317 33.0549881,15.2772968 L33.5149965,12.8464618 C33.544039,12.6941411 33.6630522,12.5751279 33.8153728,12.5460854" id="Fill-10" fill="#5700FF"></path>
                                    </g>
                                </g>
                            </g>
                        </g>
                    </g>
                </g>
            </g>
        </g>
    </g>
</svg>