<?xml version="1.0" encoding="UTF-8"?>
<svg width="20px" height="20px" viewBox="0 0 20 20" version="1.1" xmlns="http://www.w3.org/2000/svg" xmlns:xlink="http://www.w3.org/1999/xlink">
    <g id="Symbols" stroke="none" stroke-width="1" fill-rule="evenodd">
        <g id="nav/mobile" transform="translate(-313.000000, -60.000000)">
            <g id="Group" transform="translate(313.000000, 57.000000)">
                <path d="M16.032,18.984 C16.5760027,18.984 17.0399981,19.183998 17.424,19.584 C17.8080019,19.984002 18,20.4559973 18,21 C18,21.5440027 17.8080019,22.0079981 17.424,22.392 C17.0399981,22.7760019 16.5760027,22.968 16.032,22.968 C15.4879973,22.968 15.016002,22.7760019 14.616,22.392 C14.215998,22.0079981 14.016,21.5440027 14.016,21 C14.016,20.4559973 14.215998,19.984002 14.616,19.584 C15.016002,19.183998 15.4879973,18.984 16.032,18.984 Z M0,3 L3.288,3 L4.224,4.968 L19.032,4.968 C19.3040014,4.968 19.535999,5.067999 19.728,5.268 C19.920001,5.468001 20.016,5.71199856 20.016,6 C20.016,6.17600088 19.9680005,6.32799936 19.872,6.456 L16.32,12.936 C16.1439991,13.2400015 15.9000016,13.487999 15.588,13.68 C15.2759984,13.872001 14.9360018,13.968 14.568,13.968 L7.128,13.968 L6.24,15.6 L6.192,15.744 C6.192,15.8080003 6.21599976,15.8639998 6.264,15.912 C6.31200024,15.9600002 6.36799968,15.984 6.432,15.984 L18,15.984 L18,18 L6,18 C5.45599728,18 4.99200192,17.800002 4.608,17.4 C4.22399808,16.999998 4.032,16.5280027 4.032,15.984 C4.032,15.6799985 4.1119992,15.3680016 4.272,15.048 L5.616,12.552 L2.016,4.968 L0,4.968 L0,3 Z M6,18.984 C6.54400272,18.984 7.015998,19.183998 7.416,19.584 C7.816002,19.984002 8.016,20.4559973 8.016,21 C8.016,21.5440027 7.816002,22.0079981 7.416,22.392 C7.015998,22.7760019 6.54400272,22.968 6,22.968 C5.45599728,22.968 4.99200192,22.7760019 4.608,22.392 C4.22399808,22.0079981 4.032,21.5440027 4.032,21 C4.032,20.4559973 4.22399808,19.984002 4.608,19.584 C4.99200192,19.183998 5.45599728,18.984 6,18.984 Z" id="shopping_cart---material"></path>
            </g>
        </g>
    </g>
</svg>