<svg width="30" height="30" xmlns="http://www.w3.org/2000/svg"><g stroke="#333" stroke-width="1.5" fill="none" fill-rule="evenodd"><path d="M19.23 11.042c-3.296 1.793-6.957 1.292-8.852.833-.464-.112-.516-.785-.073-.97A14.113 14.113 0 0 1 13.363 10" stroke-linecap="round" stroke-linejoin="round"/><path d="M19.167 20.05c.161-.49.242-1.022.247-1.577 0-.124.023-.265.061-.414a2.943 2.943 0 0 1 2.82-2.224l.473-.004a1.09 1.09 0 0 0 1.078-1.089c.02-1.864-1.006-3.243-2.816-3.805-3.263-5.235-9.534-6.16-12.647-6.32-.634-.034-.94.789-.446 1.2 2.024 1.69 6.172 4.6 11.196 5.065l-.953 2.824a1.693 1.693 0 0 1-.69.889c-1.218.776-7.865-.738-8.585 6.943" stroke-linecap="round" stroke-linejoin="round"/><path d="M6.154 22.308a1.539 1.539 0 1 1 3.077 0 1.539 1.539 0 0 1-3.077 0zM17.04 19.58c-.646.415-.886 1.133-.886 1.797 0 2.009 2.016 2.423 2.016 2.423l3.122.046a.252.252 0 0 0 .246-.256c0-.516-.403-.935-.901-.935h-1.066l-1.168-3.424M10 23.807h4.94c1.088-.025 1.445-.295 1.357-.606-.58-2.066-3.619-1.685-3.619-1.685.858-1.17 1.05-1.889.577-2.16-.474-.271-1.184-.101-2.132.51" stroke-linecap="round" stroke-linejoin="round"/><path d="M.75 15c0 7.87 6.38 14.25 14.25 14.25S29.25 22.87 29.25 15 22.87.75 15 .75.75 7.13.75 15z"/></g></svg>