<svg xmlns="http://www.w3.org/2000/svg" xmlns:xlink="http://www.w3.org/1999/xlink" viewBox="0 0 70 55">
  <defs>
    <style>
      .cls-1 {
        fill: none;
      }

      .cls-2 {
        fill: rgba(0,0,0,0);
      }

      .cls-3 {
        fill: #5700ff;
      }

      .cls-4 {
        clip-path: url(#clip-path);
      }
    </style>
    <clipPath id="clip-path">
      <path id="Clip_12" data-name="Clip 12" class="cls-1" d="M0,6.475H4.8V0H0V6.475Z"/>
    </clipPath>
  </defs>
  <g id="Logo_white" data-name="Logo/white" transform="translate(0)">
    <rect id="Logo_white_background" data-name="Logo/white background" class="cls-2" width="70" height="55" transform="translate(0)"/>
    <g id="Logo_Purple" data-name="Logo/Purple" transform="translate(0 0.982)">
      <path id="Fill_1" data-name="Fill 1" class="cls-3" d="M3.705,7.223a2.729,2.729,0,0,1-1.884-.808L0,4.687,4.278,0,6.1,1.728a2.758,2.758,0,0,1,.925,2.14,3.48,3.48,0,0,1-.984,2.2A3.223,3.223,0,0,1,3.705,7.223Zm.768-5.145h0L2.046,4.735l.7.666a1.126,1.126,0,0,0,.8.326A1.972,1.972,0,0,0,4.925,5a1.617,1.617,0,0,0,.249-2.264l-.7-.664Z" transform="translate(1.063 33.948)"/>
      <path id="Fill_3" data-name="Fill 3" class="cls-3" d="M3.632,0,4.874.9,1.242,6.123,0,5.225Z" transform="translate(7.089 38.693)"/>
      <path id="Fill_5" data-name="Fill 5" class="cls-3" d="M4.236,7.932h0L2.668,7.1,2.441,4.565,2.32,4.5,1.35,6.4,0,5.677,2.907,0l2.3,1.227a2.069,2.069,0,0,1,.937,2.91A2.011,2.011,0,0,1,4.371,5.308a2.062,2.062,0,0,1-.489-.061L4.236,7.93Zm-.6-6.01L2.928,3.314l.889.474a.7.7,0,0,0,.326.088.758.758,0,0,0,.64-.466A.7.7,0,0,0,4.53,2.395Z" transform="translate(11.051 40.95)"/>
      <path id="Fill_7" data-name="Fill 7" class="cls-3" d="M0,6.086,1.957,0,5.831,1.294,5.416,2.583,2.989,1.772,2.615,2.939l2.131.712L4.34,4.914,2.209,4.2,1.862,5.279l2.5.837L3.951,7.406Z" transform="translate(18.149 43.971)"/>
      <path id="Fill_9" data-name="Fill 9" class="cls-3" d="M5.58,5.484A3.163,3.163,0,0,1,2.727,6.535,3.27,3.27,0,0,1,.035,2.809,3.222,3.222,0,0,1,3.676.036,3.219,3.219,0,0,1,6.115,1.892c.121-.067-1.383.7-1.383.7A1.671,1.671,0,0,0,3.451,1.581,1.672,1.672,0,0,0,1.56,3.04,1.687,1.687,0,0,0,2.952,4.99a1.657,1.657,0,0,0,1.523-.577Z" transform="translate(25.189 46.107)"/>
      <g id="Group_13" data-name="Group 13" transform="translate(33.036 46.561)">
        <path id="Clip_12-2" data-name="Clip 12" class="cls-1" d="M0,6.475H4.8V0H0V6.475Z" transform="translate(0)"/>
        <g id="Group_13-2" data-name="Group 13" class="cls-4" transform="translate(0)">
          <path id="Fill_11" data-name="Fill 11" class="cls-3" d="M.03,1.469,0,.113,4.766,0,4.8,1.357l-1.622.038L3.289,6.44l-1.522.036L1.653,1.43Z"/>
        </g>
      </g>
      <path id="Fill_14" data-name="Fill 14" class="cls-3" d="M6.26,4.281A3.224,3.224,0,0,1,4.089,6.442,3.205,3.205,0,0,1,.127,4.188,3.282,3.282,0,0,1,2.314.127a3.166,3.166,0,0,1,2.973.66c.082-.111-.975,1.222-.975,1.222a1.64,1.64,0,0,0-1.576-.38A1.7,1.7,0,0,0,1.608,3.755,1.656,1.656,0,0,0,3.667,4.942,1.689,1.689,0,0,0,4.818,3.775Z" transform="translate(43.564 44.745)"/>
      <path id="Fill_16" data-name="Fill 16" class="cls-3" d="M2.712,6.453,0,.678,1.39,0,3.527,4.551l2.039-1L6.14,4.78Z" transform="translate(50.34 42.678)"/>
      <path id="Fill_18" data-name="Fill 18" class="cls-3" d="M2.257,6.215,0,2.857l1.264-.882L3.521,5.332a.933.933,0,0,0,1.313.244A.976.976,0,0,0,5.085,4.24L2.828.882,4.092,0,6.349,3.358A2.453,2.453,0,0,1,5.643,6.78a2.35,2.35,0,0,1-3.386-.565" transform="translate(55.086 38.078)"/>
      <path id="Fill_20" data-name="Fill 20" class="cls-3" d="M4.371,7.079h0L0,2.479,1.847.654A2.021,2.021,0,0,1,3.249,0,1.574,1.574,0,0,1,4.4.525,1.318,1.318,0,0,1,4.63,2.061a1.324,1.324,0,0,1,.794-.269,1.583,1.583,0,0,1,1.118.5A1.908,1.908,0,0,1,7.1,3.554a2.156,2.156,0,0,1-.747,1.572L4.371,7.078Zm.49-3.92a.734.734,0,0,0-.509.238l-.695.684.889.936.7-.693A.667.667,0,0,0,5.3,3.354.613.613,0,0,0,4.861,3.159ZM2.973,1.611a.49.49,0,0,0-.344.161l-.6.595.761.8.59-.583A.511.511,0,0,0,3.4,1.831.606.606,0,0,0,2.973,1.611Z" transform="translate(60.994 34.022)"/>
      <path id="Fill_22" data-name="Fill 22" class="cls-3" d="M4.734,9.228C.287,8,.254,5.7.287,4.306.318,2.071,2.955,0,6.067,0c2.954,0,6.067,1.328,6.1,5.019H8c-.031-1.134-.984-1.328-1.683-1.328-.954,0-1.588.453-1.556,1.133.031.453.412.906,1.3,1.133l2.51.681c3.589,1,4.034,3.432,4.034,4.4,0,3.205-3.3,4.727-6.417,4.727C3.176,15.769.032,13.923,0,10.556H4.13A2.1,2.1,0,0,0,6.322,12.3c.985-.032,1.811-.486,1.811-1.262,0-.648-.381-1-1.461-1.3Z" transform="translate(0 7.901)"/>
      <path id="Fill_25" data-name="Fill 25" class="cls-3" d="M13.85,7.448v8H9.435V7.286C9.4,5.376,8.259,4.372,6.989,4.372c-1.335,0-2.573.777-2.573,3.076v8H0V.324H4.416v2.2A4.236,4.236,0,0,1,8.29.033c2.351,0,3.94.906,4.766,2.656A5.057,5.057,0,0,1,17.5,0c3.526,0,5.718,2.3,5.718,6.865v8.581H18.837V7.384c0-1.976-1.144-3.011-2.446-3.011-1.4,0-2.541.874-2.541,3.076" transform="translate(14.454 7.901)"/>
      <path id="Fill_27" data-name="Fill 27" class="cls-3" d="M4.956,23.347H.572V8.225H4.956V23.346ZM2.764,5.279A2.715,2.715,0,0,1,0,2.623,2.7,2.7,0,0,1,2.764,0a2.64,2.64,0,1,1,0,5.279Z" transform="translate(39.738)"/>
      <path id="Fill_29" data-name="Fill 29" class="cls-3" d="M0,23.347H4.416V0H0Z" transform="translate(47.489 0)"/>
      <path id="Fill_30" data-name="Fill 30" class="cls-3" d="M7.75,15.769a7.711,7.711,0,0,1-5.471-2.181A7.979,7.979,0,0,1,0,7.836a7.73,7.73,0,0,1,2.279-5.7A7.781,7.781,0,0,1,7.75,0a7.455,7.455,0,0,1,5.381,2.2,8.137,8.137,0,0,1,2.212,5.767c0,.387-.032,1.006-.063,1.392H4.415c.221,1.735,2.049,2.526,3.653,2.526a4.064,4.064,0,0,0,3.239-1.425l3.209,2.235C13.228,14.649,10.762,15.769,7.75,15.769ZM7.782,3.95a3.252,3.252,0,0,0-3.3,2.591H10.9A3,3,0,0,0,7.782,3.95Z" transform="translate(53.811 7.901)"/>
    </g>
  </g>
</svg>
